<svg xmlns="http://www.w3.org/2000/svg" viewBox="0 0 64 64" width="64" height="64" color="#E9C056" role="img" aria-labelledby="title-hero-distribution-network">
  <title id="title-hero-distribution-network">Global Distribution Network</title>
  <g fill="none" stroke="#E9C056" stroke-width="2.6" stroke-linecap="round" stroke-linejoin="round">
    <circle cx="32" cy="32" r="23"/>
    <path d="M9 32h46"/>
    <path d="M14 20c10 5 26 5 36 0"/>
    <path d="M14 44c10-5 26-5 36 0"/>
    <path d="M32 9c-7 7-11 15-11 23s4 16 11 23"/>
    <path d="M32 9c7 7 11 15 11 23s-4 16-11 23"/>
    <path d="M12 19c8-8 17-11 26-10"/>
    <path d="M39 11c7 2 11 6 14 11"/>
    <path d="M13 45c8 7 18 10 28 8"/>
    <circle cx="16" cy="18" r="2" fill="#E9C056" stroke="none"/>
    <circle cx="44" cy="15" r="2" fill="#E9C056" stroke="none"/>
    <circle cx="52" cy="32" r="2" fill="#E9C056" stroke="none"/>
    <circle cx="22" cy="48" r="2" fill="#E9C056" stroke="none"/>
  </g>
</svg>
