<?xml version="1.0" encoding="UTF-8"?>
<svg xmlns="http://www.w3.org/2000/svg" id="Layer_1" data-name="Layer 1" viewBox="0 0 748.1 275.2">
  <defs>
    <style>
      .cls-1 {
        fill: #546a7b;
      }

      .cls-1, .cls-2 {
        stroke-width: 0px;
      }

      .cls-2 {
        fill: #e88b39;
      }
    </style>
  </defs>
  <path class="cls-2" d="m503.2,96.3c-8,2.2-15.2,5.5-21.6,9.8-6.4,4.3-11.5,9.6-15.3,15.8-3.8,6.3-5.7,13.6-5.7,21.9s1.6,15.1,4.8,20.8c3.2,5.8,7.4,10.7,12.5,14.7,5.2,4.1,11,7.3,17.5,9.8s13.1,4.4,19.7,5.9c9.3,2.2,17.1,4.2,23.4,6.1s11.3,3.9,15.1,6.1,6.5,4.7,8.1,7.6c1.6,2.8,2.4,6.2,2.4,10.1,0,7.6-3.7,13.2-11.1,16.8-7.4,3.6-16.6,5.4-27.7,5.4s-21.3-1.8-29.9-5.5c-8.6-3.7-16-8.6-22.1-14.7l-20.3,22.1c16.2,17.4,40.5,26.2,73,26.2,9.3,0,18.3-1.1,26.9-3.3,8.6-2.2,16.2-5.5,22.9-9.9,6.6-4.4,11.9-9.9,15.8-16.4,3.9-6.5,5.9-14.1,5.9-22.7s-1.5-15.5-4.6-21.4-7.2-10.9-12.5-14.9c-5.3-4.1-11.4-7.4-18.4-9.9-7-2.6-14.6-4.9-22.7-6.8-13.8-3.2-24.9-6.6-33.4-10.1-8.5-3.6-12.7-9-12.7-16.4,0-7.9,3.2-13.5,9.6-17,6.4-3.4,14.9-5.2,25.4-5.2s19.4,1.6,27.1,4.8c7.7,3.2,14.2,7.1,19.4,11.8l18.1-22.9c-7.9-6.9-17-12.2-27.5-16-10.4-3.8-22.9-5.7-37.4-5.7-8.4-.3-16.7.8-24.7,3.1"></path>
  <path class="cls-2" d="m616.5,58.2v155.7c0,20.9,4.2,36.2,12.7,46.1,8.5,9.8,21.8,14.7,40,14.7,10.3,0,19.2-1.5,26.7-4.6s14.8-8.1,21.9-14.9l-15-20.3c-4.2,3.9-8.4,6.9-12.5,8.8-4.2,2-9.5,2.9-15.8,2.9-7.9,0-14-2.6-18.2-7.7-4.3-5.2-6.5-14.6-6.5-28.4v-84.4h50v-27.7h-50.1v-40.3l-33.2.1h0Z"></path>
  <path class="cls-1" d="m709.1,0c-21.5,0-39,17.5-39,39h0v39h39c21.5,0,39-17.5,39-39S730.6.1,709.1,0h0Zm0,61.8c-12.6,0-22.7-10.2-22.7-22.7s10.2-22.7,22.7-22.7,22.7,10.2,22.7,22.7-10.1,22.7-22.7,22.7Z"></path>
  <path class="cls-2" d="m0,58.2v155.7c0,20.9,4.2,36.2,12.7,46.1,8.5,9.8,21.8,14.7,40,14.7,10.3,0,19.2-1.5,26.7-4.6,5.2-2.1,10.4-5.3,15.4-9.3-5.2-6.7-9.8-14-13.6-21.7-2.5,1.9-5,3.5-7.5,4.7-4.2,2-9.5,2.9-15.8,2.9-7.9,0-14-2.6-18.2-7.7-4.3-5.2-6.5-14.6-6.5-28.4v-84.5h49.5c5.3-10.1,11.8-19.2,19.5-27.4v-.2H33.2v-40.3H0Z"></path>
  <path class="cls-2" d="m268.2,148.8c-4.5-10.9-10.9-20.6-19-28.9-8.1-8.3-17.7-14.9-28.8-19.7-11-4.8-23.1-7.2-36.1-7.2s-25.4,2.4-36.5,7.2-20.6,11.4-28.6,19.7c-8,8.3-14.3,18-18.8,28.9s-6.8,22.7-6.8,35.2,2.3,24.3,6.8,35.2c4.5,10.9,10.8,20.6,18.8,28.9s17.5,14.9,28.6,19.7c11,4.8,23.2,7.2,36.5,7.2s25.1-2.4,36.1-7.2c11-4.8,20.6-11.4,28.8-19.7,8.1-8.4,14.4-18,19-28.9,4.5-10.9,6.8-22.7,6.8-35.2s-2.2-24.2-6.8-35.2Zm-30.6,58.2c-2.6,7.5-6.3,14.1-11.3,19.9-4.9,5.8-10.9,10.4-18.1,14-7.1,3.6-15.1,5.4-24,5.4s-16.8-1.8-23.8-5.4-13-8.3-18.1-14.2c-5-5.9-8.8-12.5-11.4-19.9-2.6-7.4-3.9-15-3.9-22.9s1.3-15.5,3.9-23c2.6-7.5,6.3-14.1,11.2-19.9s10.9-10.4,18.1-14c7.1-3.6,15.1-5.4,24-5.4s16.8,1.8,23.8,5.4c7,3.6,13,8.3,18.1,14.2,5,5.9,8.8,12.6,11.4,20.1s3.9,15.1,3.9,22.7-1.2,15.6-3.8,23h0Z"></path>
  <path class="cls-2" d="m435.5,254.8v-99.9c0-19.7-6.3-34.8-19-45.5s-30-16-52.2-16c-38.6,0-70.9,19.1-77.9,23.5,4,6.2,7.5,12.9,10.4,19.9.7,1.7,1.3,3.4,2,5.1,5-3.3,29.1-20.9,61.8-20.9,13.3,0,23.8,2.8,31.5,8.3s11.6,14.7,11.6,27.5v6.3c-1.2-.2-3.3-.5-6.3-.7-2.9-.2-6.4-.5-10.3-.7s-8.1-.5-12.5-.7-8.6-.4-12.5-.4c-24.3,0-43,5.5-55.8,16.6-12.9,11.1-19.4,25.8-19.4,44.2,0,9.8,1.8,18.1,5.4,24.9s8.2,12.3,14,16.6c5.8,4.3,12.2,7.4,19.2,9.2,7,1.8,14.1,2.8,21.2,2.8,11,0,21.8-2.1,32.2-6.3,10.4-4.2,18.9-10.6,25.2-19.2l.7,20.6h31c-.2-4.3-.3-9.4-.3-15.2h0Zm-31.7-46.5c0,5.2-1.4,10.2-4.1,15.1s-6.3,9.2-10.7,12.9c-4.4,3.7-9.5,6.6-15.3,8.8-5.8,2.2-11.9,3.3-18.2,3.3-11.3,0-20.2-2.4-26.5-7.2-6.4-4.8-9.6-11.9-9.6-21.2,0-3.7.6-7.6,1.8-11.6,1.2-4.1,3.5-7.7,6.8-11s7.9-6.1,13.6-8.3c5.8-2.2,13.3-3.3,22.7-3.3,3.9,0,8,.1,12.2.4,4.2.2,8.1.5,11.8.7,3.7.2,6.9.5,9.8.9,2.8.4,4.7.7,5.7.9v19.6h0Z"></path>
  <path class="cls-1" d="m714.1,51l-4.7-8.5h-3.7v8.5h-5.1v-23.9h11.2c5,0,8,3.3,8,7.7s-2.7,6.5-5.2,7.1l5.4,9.1h-5.9Zm.5-16.2c0-2-1.6-3.2-3.6-3.2h-5.4v6.5h5.4c2-.1,3.6-1.3,3.6-3.3h0Z"></path>
</svg>
